<?xml version="1.0" encoding="utf-8"?>
<!-- Svg Vector Icons : http://www.onlinewebfonts.com/icon -->
<!DOCTYPE svg PUBLIC "-//W3C//DTD SVG 1.1//EN" "http://www.w3.org/Graphics/SVG/1.1/DTD/svg11.dtd">
<svg version="1.1" xmlns="http://www.w3.org/2000/svg" xmlns:xlink="http://www.w3.org/1999/xlink" x="0px" y="0px" viewBox="0 0 1000 1000" enable-background="new 0 0 1000 1000" xml:space="preserve">
<metadata> Svg Vector Icons : http://www.onlinewebfonts.com/icon </metadata>
<g><g transform="translate(0.000000,511.000000) scale(0.100000,-0.100000)"><path d="M929.6,4967.4c-196.4-53.6-331.6-130.1-479.5-270.4c-153-145.4-250-311.2-306.1-520.3c-58.7-224.4-58.7-6277,0-6498.9c53.6-206.6,125-336.7,270.4-489.7c201.5-211.7,505-344.3,793.2-344.3H1330v3032.7c0,2953.6,2.6,3037.7,51,3193.3c94.4,303.5,357.1,566.2,660.6,660.6c155.6,48.5,239.8,51,3193.3,51h3032.6v122.4c0,288.2-132.6,591.7-344.3,793.2c-153,145.4-283.1,216.8-489.7,270.4C7221.9,5023.5,1133.6,5021,929.6,4967.4z"/><path d="M2561.9,3335.1c-74-20.4-183.6-61.2-242.3-91.8c-147.9-74-357.1-278-436.1-426c-150.5-278-145.4-140.3-145.4-3524.9c0-3338.7-2.5-3236.7,130.1-3499.4c74-147.9,280.6-357.1,425.9-436.1c278-150.5,140.3-145.4,3524.9-145.4c3384.6,0,3246.9-5.1,3524.9,145.4c145.4,79.1,352,288.2,425.9,436.1c132.6,262.7,130.1,160.7,130.1,3499.4c0,3384.6,5.1,3246.9-145.4,3524.9c-79.1,145.4-288.2,352-436.1,426c-262.7,135.2-158.1,130.1-3512.2,127.5C3209.8,3370.8,2671.6,3363.1,2561.9,3335.1z M8895,2490.8c38.3-28.1,94.4-84.2,122.4-122.4c53.6-68.9,53.6-79.1,53.6-3076c0-2996.9,0-3007.1-53.6-3076c-28.1-38.3-84.2-94.4-122.4-122.5c-68.8-53.6-79.1-53.6-3076-53.6c-2996.9,0-3007.1,0-3076,53.6c-38.3,28.1-94.4,84.2-122.4,122.5c-53.6,68.8-53.6,86.7-61.2,3007.1c-2.6,1617.1,0,2974,7.6,3019.9c17.9,102,125,232.1,229.6,278c61.2,28,617.2,33.2,3053.1,28C8810.9,2544.4,8826.2,2544.4,8895,2490.8z"/><path d="M7374.9,1350.7c-68.9-20.4-392.8-326.5-1356.9-1288L4750.4-1202.4l-252.5,244.8c-219.4,211.7-265.3,247.4-382.6,275.5c-227,53.6-420.8-12.8-607-209.2c-198.9-206.6-252.5-403-176-635.1c40.8-122.4,102-193.9,556-653c280.6-283.1,550.9-535.6,601.9-558.6c137.7-66.3,313.7-76.5,456.6-23c102,38.3,334.1,260.2,1657.9,1578.8C7630-159.2,8157.9,386.6,8191.1,455.5c61.2,122.4,68.9,354.5,15.3,482c-56.1,132.6-242.3,318.8-385.1,385.2C7683.5,1389,7527.9,1396.6,7374.9,1350.7z"/></g></g>
</svg>